<?xml version="1.0" encoding="utf-8"?>
<!-- Generator: Adobe Illustrator 16.0.0, SVG Export Plug-In . SVG Version: 6.00 Build 0)  -->
<!DOCTYPE svg PUBLIC "-//W3C//DTD SVG 1.1//EN" "http://www.w3.org/Graphics/SVG/1.1/DTD/svg11.dtd">
<svg version="1.1" id="pumpkin" xmlns="http://www.w3.org/2000/svg" xmlns:xlink="http://www.w3.org/1999/xlink" x="0px" y="0px"
	 width="64px" height="64px" viewBox="0 0 64 64" enable-background="new 0 0 64 64" xml:space="preserve">
<path fill="#F29400" d="M32,13c-2.397,0-4.645,0.562-6.596,1.536c-5.487,0.285-10.042,2.7-11.713,6.583
	C10.195,24.22,8,28.613,8,33.5s2.195,9.28,5.691,12.381c1.671,3.884,6.227,6.299,11.713,6.584C27.355,53.438,29.603,54,32,54
	s4.645-0.562,6.596-1.535c5.486-0.285,10.042-2.7,11.713-6.584C53.805,42.78,56,38.387,56,33.5s-2.195-9.28-5.691-12.381
	c-1.671-3.884-6.226-6.299-11.713-6.583C36.645,13.562,34.397,13,32,13z"/>
<path fill="#F29400" d="M32,13c-2.397,0-4.645,0.562-6.596,1.536c-5.487,0.285-10.042,2.7-11.713,6.583
	C10.195,24.22,8,28.613,8,33.5s2.195,9.28,5.691,12.381c1.671,3.884,6.227,6.299,11.713,6.584C27.355,53.438,29.603,54,32,54
	s4.645-0.562,6.596-1.535c5.486-0.285,10.042-2.7,11.713-6.584C53.805,42.78,56,38.387,56,33.5s-2.195-9.28-5.691-12.381
	c-1.671-3.884-6.226-6.299-11.713-6.583C36.645,13.562,34.397,13,32,13z"/>
<path fill="#D67327" d="M50.309,21.119c-1.671-3.884-6.226-6.299-11.713-6.583C36.645,13.562,34.397,13,32,13
	c-1.397,0-2.733,0.21-4,0.563c0.906,0.252,1.781,0.567,2.596,0.973c5.487,0.285,10.042,2.7,11.713,6.583
	C45.805,24.22,48,28.613,48,33.5s-2.195,9.28-5.691,12.381c-1.671,3.884-6.227,6.299-11.713,6.584
	c-0.814,0.406-1.689,0.721-2.596,0.973C29.267,53.79,30.603,54,32,54c2.397,0,4.645-0.562,6.596-1.535
	c5.486-0.285,10.042-2.7,11.713-6.584C53.805,42.78,56,38.387,56,33.5S53.805,24.22,50.309,21.119z"/>
<path fill="#FDAB5A" d="M22.5,42V25c0-6.252,5.382-11.382,12.25-11.944C34.338,13.022,33.922,13,33.5,13C26.045,13,20,18.373,20,25
	v17c0,6.627,6.045,12,13.5,12c0.422,0,0.838-0.022,1.25-0.056C27.882,53.383,22.5,48.252,22.5,42z"/>
<path fill="#ED8723" d="M36.9,51.009c2.513-1.136,4.443-2.885,5.408-5.128c0.496-0.44,0.959-0.913,1.399-1.402
	C43.897,43.678,44,42.85,44,42V25c0-0.85-0.103-1.678-0.292-2.479c-0.44-0.489-0.903-0.962-1.399-1.402
	c-0.965-2.243-2.896-3.993-5.41-5.129C39.716,18.188,41.5,21.406,41.5,25v17C41.5,45.594,39.716,48.811,36.9,51.009z"/>
<path fill="#FDAB5A" d="M24.646,52.465c-5.486-0.285-10.042-2.7-11.713-6.584C9.437,42.78,7.241,38.387,7.241,33.5
	s2.195-9.28,5.691-12.381c1.671-3.884,6.226-6.299,11.713-6.583L25,15.353c-3.321,1.054-5.899,3.051-7.067,5.767
	c-3.496,3.101-5.691,7.494-5.691,12.381s2.195,9.28,5.691,12.381c1.162,2.7,3.719,4.691,7.013,5.749L24.646,52.465z"/>
<path fill="#008B31" d="M29,13.5c0-6,4-9,6-7s-2.612,2.163-1,7"/>
<path fill="#005D22" d="M35,6.5c-0.683-0.682-1.598-0.77-2.507-0.368C32.672,6.228,32.844,6.343,33,6.5c2,2-2.612,2.163-1,7h2
	C32.388,8.663,37,8.5,35,6.5z"/>
<polygon fill="#D36727" points="36,29 41,22.5 46,29 "/>
<polygon fill="#D36727" points="28,29 23,22.5 18,29 "/>
<polygon fill="#D36727" points="32,45.5 27,42.5 21,44.5 17,36.5 23,38.5 28,36.5 32,38.5 36,36.5 41,38.5 47,36.5 43,44.5 37,42.5 
	"/>
<polygon fill="#7F3F19" points="41,22.5 39.5,24.45 43,29 46,29 "/>
<polygon fill="#7F3F19" points="23,22.5 21.5,24.45 25,29 28,29 "/>
<polygon fill="#7F3F19" points="43.4,37.7 40.429,43.643 43,44.5 47,36.5 "/>
<g>
	<path fill="#272223" d="M51.135,20.518c-1.822-3.961-6.49-6.612-12.28-6.969c-1.294-0.624-2.695-1.032-4.132-1.271
		c-0.26-1.512,0.332-2.263,0.918-2.984c0.598-0.736,1.599-1.969,0.066-3.5c-0.925-0.926-2.245-1.159-3.528-0.627
		c-1.925,0.797-3.843,3.368-4.122,7.358c-1.006,0.25-1.987,0.579-2.911,1.024c-5.79,0.356-10.458,3.008-12.281,6.969
		C9.081,23.949,7,28.552,7,33.5s2.081,9.551,5.865,12.982c1.822,3.961,6.491,6.612,12.281,6.97C27.25,54.465,29.615,55,32,55
		s4.75-0.535,6.854-1.548c5.79-0.357,10.459-3.009,12.28-6.97C54.919,43.051,57,38.448,57,33.5S54.919,23.949,51.135,20.518z
		 M32.944,7.014c0.542-0.224,0.995-0.161,1.349,0.193c0.148,0.148,0.2,0.237,0.216,0.243c-0.045,0.119-0.261,0.386-0.421,0.583
		c-0.626,0.771-1.567,1.97-1.396,4.033c-0.871-0.036-1.743-0.02-2.608,0.081C30.41,9.418,31.682,7.537,32.944,7.014z M49.646,45.133
		c-0.11,0.098-0.197,0.218-0.256,0.353c-1.47,3.418-5.626,5.71-10.846,5.98c-0.138,0.008-0.271,0.043-0.395,0.104
		c-3.75,1.871-8.549,1.871-12.299,0c-0.123-0.062-0.257-0.097-0.395-0.104c-5.22-0.271-9.375-2.563-10.846-5.98
		c-0.058-0.135-0.145-0.255-0.255-0.353C10.902,42.07,9,37.938,9,33.5s1.902-8.57,5.355-11.633c0.11-0.098,0.197-0.218,0.255-0.353
		c1.471-3.418,5.626-5.709,10.846-5.98c0.138-0.007,0.271-0.042,0.395-0.104C27.726,14.495,29.852,14,32,14s4.274,0.495,6.149,1.43
		c0.123,0.062,0.257,0.097,0.395,0.104c5.22,0.271,9.376,2.563,10.846,5.98c0.059,0.135,0.146,0.255,0.256,0.353
		C53.099,24.93,55,29.062,55,33.5S53.099,42.07,49.646,45.133z"/>
	<path fill="#272223" d="M36,30h10c0.381,0,0.729-0.217,0.897-0.559c0.168-0.342,0.128-0.749-0.104-1.051l-5-6.5
		c-0.379-0.492-1.207-0.492-1.586,0l-5,6.5c-0.232,0.302-0.272,0.709-0.104,1.051C35.271,29.783,35.619,30,36,30z M41,24.14
		L43.969,28h-5.938L41,24.14z"/>
	<path fill="#272223" d="M18,30h10c0.381,0,0.729-0.217,0.897-0.559c0.168-0.342,0.128-0.749-0.104-1.051l-5-6.5
		c-0.379-0.492-1.207-0.492-1.586,0l-5,6.5c-0.232,0.302-0.272,0.709-0.104,1.051C17.271,29.783,17.619,30,18,30z M23,24.14
		L25.969,28h-5.938L23,24.14z"/>
	<path fill="#272223" d="M46.684,35.552l-5.652,1.884l-4.66-1.864c-0.264-0.105-0.563-0.093-0.818,0.034L32,37.382l-3.553-1.776
		c-0.256-0.127-0.554-0.14-0.818-0.034l-4.66,1.864l-5.652-1.884c-0.382-0.13-0.806-0.012-1.072,0.293
		c-0.265,0.306-0.32,0.741-0.139,1.103l4,8c0.224,0.445,0.739,0.661,1.211,0.501l5.563-1.854l4.605,2.764
		C31.644,46.452,31.822,46.5,32,46.5s0.356-0.048,0.515-0.143l4.605-2.764l5.563,1.854c0.472,0.16,0.987-0.056,1.211-0.501l4-8
		c0.181-0.361,0.126-0.797-0.139-1.103C47.491,35.54,47.067,35.421,46.684,35.552z M42.493,43.277l-5.177-1.726
		c-0.278-0.095-0.581-0.061-0.831,0.091L32,44.334l-4.485-2.691C27.357,41.548,27.18,41.5,27,41.5c-0.106,0-0.213,0.017-0.316,0.052
		l-5.177,1.726l-2.533-5.065l3.71,1.236c0.224,0.076,0.468,0.068,0.688-0.02l4.583-1.833l3.599,1.799
		c0.281,0.141,0.613,0.141,0.895,0l3.599-1.799l4.583,1.833c0.22,0.088,0.464,0.096,0.688,0.02l3.71-1.236L42.493,43.277z"/>
</g>
</svg>
